# AST/ASF file generated using VICON BodyLanguage
# -----------------------------------------------
:version 1.10
:name VICON
:units
  mass 1.0
  length 0.45
  angle deg
:documentation
   .ast/.asf automatically generated from VICON data using
   VICON BodyBuilder and BodyLanguage model FoxedUp or BRILLIANT.MOD
:root
   order TX TY TZ RX RY RZ
   axis XYZ
   position 0 0 0  
   orientation 0 0 0 
:bonedata
  begin
     id 1 
     name lhipjoint
     direction 0.653368 -0.678499 0.335782 
     length 2.51848 
     axis 0 0 0  XYZ
  end
  begin
     id 2 
     name lfemur
     direction 0.34202 -0.939693 0  
     length 6.57749  
     axis 0 0 20  XYZ
    dof rx ry rz
    limits (-160.0 20.0)
           (-70.0 70.0)
           (-60.0 70.0)
  end
  begin
     id 3 
     name ltibia
     direction 0.34202 -0.939693 0   
     length 7.94618   
     axis 0 0 20   XYZ
    dof rx
    limits (-10.0 170.0)
  end
  begin
     id 4 
     name lfoot
     direction 0.0811271 -0.222895 0.971461   
     length 2.31339   
     axis -90 7.62852e-016 20   XYZ
    dof rx rz
    limits (-45.0 90.0)
           (-70.0 20.0)
  end
  begin
     id 5 
     name ltoes
     direction 1.53568e-011 -4.21885e-011 1   
     length 1.15935   
     axis -90 7.62852e-016 20   XYZ
    dof rx
    limits (-90.0 20.0)
  end
  begin
     id 6 
     name rhipjoint
     direction -0.640058 -0.688614 0.340788   
     length 2.48149  
     axis 0 0 0  XYZ 
  end
  begin
     id 7 
     name rfemur
     direction -0.34202 -0.939693 0   
     length 6.57875   
     axis 0 0 -20   XYZ
    dof rx ry rz
    limits (-160.0 20.0)
           (-70.0 70.0)
           (-70.0 60.0)
  end
  begin
     id 8 
     name rtibia
     direction -0.34202 -0.939693 0   
     length 7.977   
     axis 0 0 -20   XYZ
    dof rx
    limits (-10.0 170.0)
 end
 begin
     id 9 
     name rfoot
     direction -0.0979793 -0.269196 0.958089   
     length 2.19857  
     axis -90 -7.62852e-016 -20   XYZ
    dof rx rz
    limits (-45.0 90.0)
           (-20.0 70.0)
  end
  begin
     id 10 
     name rtoes
     direction -1.53556e-011 -4.21868e-011 1   
     length 1.09838   
     axis -90 -7.62852e-016 -20   XYZ
    dof rx
    limits (-90.0 20.0)
  end
  begin
     id 11 
     name lowerback
     direction 0.0149039 0.998517 -0.0523597   
     length 2.10809   
     axis 0 0 0   XYZ
    dof rx ry rz
    limits (-20.0 45.0)
           (-30.0 30.0)
           (-30.0 30.0)
  end
  begin
     id 12 
     name upperback
     direction -0.00882659 0.999418 -0.0329624   
     length 2.1102   
     axis 0 0 0   XYZ
    dof rx ry rz
    limits (-20.0 45.0)
           (-30.0 30.0)
           (-30.0 30.0)
  end
  begin
     id 13 
     name thorax
     direction -0.0165585 0.999826 -0.0085833   
     length 2.11039   
     axis 0 0 0   XYZ
    dof rx ry rz
    limits (-20.0 45.0)
           (-30.0 30.0)
           (-30.0 30.0)
  end
  begin
     id 14 
     name lowerneck
     direction -0.0130877 0.999911 0.00260353   
     length 1.73253   
     axis 0 0 0   XYZ
    dof rx ry rz
    limits (-20.0 45.0)
           (-30.0 30.0)
           (-30.0 30.0)
  end
  begin
     id 15 
     name upperneck
     direction -0.0348454 0.928205 -0.370435   
     length 1.66692   
     axis 0 0 0   XYZ
    dof rx ry rz
    limits (-20.0 45.0)
           (-30.0 30.0)
           (-30.0 30.0)
  end
  begin
     id 16
     name head
     direction -0.00807754 0.992494 -0.122026  
     length 1.72765  
     axis 0 0 0   XYZ
    dof rx ry rz
    limits (-20.0 45.0)
           (-30.0 30.0)
           (-30.0 30.0)
  end
  begin
     id 17 
     name lclavicle
     direction 0.987582 0.144023 0.0627671  
     length 3.49235  
     axis 0 0 0   XYZ
    dof ry rz
    limits (-20.0 10.0)
           (0.0 20.0)
  end
  begin
     id 18 
     name lhumerus
     direction 1 -4.48958e-011 -1.45183e-018   
     length 5.41917   
     axis 180 -30 -90   XYZ
    dof rx ry rz
    limits (-60.0 90.0)
           (-90.0 90.0)
           (-90.0 90.0)
  end
  begin
     id 19
     name lradius
     direction 1 -4.48999e-011 5.75106e-027   
     length 2.44373   
     axis 180 -30 -90   XYZ
    dof rx
    limits (-10.0 170.0)
  end
  begin
     id 20
     name lwrist
     direction 1 -4.48987e-011 1.53461e-026   
     length 1.22186   
     axis -1.09697e-014 90 90   XYZ
    dof ry
    limits (-180.0 0.0)
 end
  begin
     id 21 
     name lhand
     direction 1 -4.48881e-011 3.06923e-026   
     length 0.727502   
     axis -1.95843e-014 90 90   XYZ
    dof rx rz
    limits (-90.0 90.0)
           (-45.0 45.0)
  end
  begin
     id 22 
     name lfingers
     direction 1 -4.48907e-011 6.13845e-026   
     length 0.586531   
     axis -3.91686e-014 90 90   XYZ
    dof rx
    limits (0.0 90.0)
  end
  begin
     id 23
     name lthumb
     direction 0.707107 -6.3487e-011 0.707107   
     length 0.842145   
     axis -90 45 2.85299e-015   XYZ
    dof rx rz
    limits (-45.0 45.0)
           (-45.0 45.0)
  end
  begin
     id 24 
     name rclavicle
     direction -0.980998 0.169556 0.0943023   
     length 3.29272  
     axis 0 0 0   XYZ 
    dof ry rz
    limits (-10.0 20.0)
           (-20.0 0.0)
  end
  begin
     id 25 
     name rhumerus
     direction -1 -1.83355e-005 2.45537e-005  
     length 5.58976   
     axis 180 30 90   XYZ
    dof rx ry rz
    limits (-90.0 60.0)
           (-90.0 90.0)
           (-90.0 90.0)
  end
  begin
     id 26 
     name rradius
     direction -1 -4.48967e-011 5.97228e-027   
     length 2.4806   
     axis 180 30 90   XYZ
    dof rx
    limits (-10.0 170.0)
  end
  begin
     id 27 
     name rwrist
     direction -1 -4.48963e-011 1.53461e-026   
     length 1.2403   
     axis -1.09697e-014 -90 -90   XYZ
    dof ry
    limits (-180.0 0.0)
  end
  begin
     id 28
     name rhand
     direction -1 -4.48881e-011 3.06923e-026   
     length 0.816009   
     axis -1.95843e-014 -90 -90   XYZ
    dof rx rz
    limits (-90.0 90.0)
           (-45.0 45.0)
  end
  begin
     id 29
     name rfingers
     direction -1 -4.49018e-011 6.13845e-026   
     length 0.657887   
     axis -3.91686e-014 -90 -90   XYZ
    dof rx
    limits (0.0 90.0)
  end
  begin
     id 30
     name rthumb
     direction -0.707107 -6.34872e-011 0.707107   
     length 0.944599   
     axis -90 -45 -2.85299e-015   XYZ
    dof rx rz
    limits (-45.0 45.0)
           (-45.0 45.0)
  end
:hierarchy
  begin
    root lhipjoint rhipjoint lowerback
    lhipjoint lfemur
    lfemur ltibia
    ltibia lfoot
    lfoot ltoes
    rhipjoint rfemur
    rfemur rtibia
    rtibia rfoot
    rfoot rtoes
    lowerback upperback
    upperback thorax
    thorax lowerneck lclavicle rclavicle
    lowerneck upperneck
    upperneck head
    lclavicle lhumerus
    lhumerus lradius
    lradius lwrist
    lwrist lhand lthumb
    lhand lfingers
    rclavicle rhumerus
    rhumerus rradius
    rradius rwrist
    rwrist rhand rthumb
    rhand rfingers
  end

#!OML:ASF F:\VICON\USERDATA\INSTALL\rory3\rory3.ASF
:FULLY-SPECIFIED
:DEGREES
86
root 4.71108 16.5508 27.8228 29.5892 -51.955 -7.34035
lowerback -13.953 2.67434 -3.1583
upperback -9.36336 3.61196 0.0399244
thorax -2.28346 1.85504 2.22902
lowerneck -10.3782 -0.549101 -1.51892
upperneck 40.1439 -2.80465 3.43798
head 16.1278 -1.28229 1.22801
rclavicle -3.70236e-015 2.82274e-014
rhumerus -142.789 -38.6073 103.514
rradius 14.8357
rwrist 156.615
rhand 12.8459 10.9137
rfingers 7.12502
rthumb 37.8203 -14.9342
lclavicle -3.70236e-015 2.82274e-014
lhumerus -37.5377 18.6921 38.3217
lradius 17.3906
lwrist -32.9806
lhand 24.5382 21.8497
lfingers 7.12502
lthumb 48.7368 43.7113
rfemur -28.9159 -13.5611 33.0434
rtibia 54.1036
rfoot 35.5704 -33.0657
rtoes 45.6448
lfemur -48.2111 -1.04906 -25.7146
ltibia 47.4082
lfoot -36.5054 19.5205
ltoes 8.78055
87
root 4.71289 16.5495 27.8184 29.0608 -52.516 -6.44086
lowerback -13.9437 2.68666 -3.85891
upperback -9.43917 3.69651 -0.225021
thorax -2.4098 1.92354 2.34854
lowerneck -10.5041 -0.516016 -1.42744
upperneck 40.1312 -2.77754 3.44848
head 16.15 -1.25315 1.22006
rclavicle 2.80908e-014 1.51076e-014
rhumerus -142.24 -39.5552 103.078
rradius 14.5368
rwrist 154.583
rhand 12.9129 11.0525
rfingers 7.12502
rthumb 37.8836 -14.7783
lclavicle 2.80908e-014 1.51076e-014
lhumerus -37.5845 19.4741 37.0057
lradius 17.6534
lwrist -31.9718
lhand 24.2264 22.2016
lfingers 7.12502
lthumb 48.45 44.2017
rfemur -29.1789 -12.9817 32.3487
rtibia 54.1669
rfoot 33.977 -34.3922
rtoes 46.4608
lfemur -48.2729 -1.17291 -26.2304
ltibia 47.3443
lfoot -36.5051 18.9575
ltoes 8.93513
88
root 4.70794 16.5447 27.8232 29.46 -52.3516 -6.9443
lowerback -14.0445 2.69618 -3.36722
upperback -9.31149 3.66664 -0.239845
thorax -2.17828 1.8811 2.06624
lowerneck -10.7382 -0.469881 -1.31624
upperneck 40.003 -2.73804 3.49659
head 16.1378 -1.20748 1.22551
rclavicle -1.30452e-016 1.66979e-014
rhumerus -142.48 -40.0048 103.282
rradius 14.3275
rwrist 152.809
rhand 12.846 10.9122
rfingers 7.12502
rthumb 37.8204 -14.9356
lclavicle -1.30452e-016 1.66979e-014
lhumerus -37.5019 20.5326 35.6029
lradius 17.8329
lwrist -30.7783
lhand 23.9585 22.2902
lfingers 7.12502
lthumb 48.2033 44.4076
rfemur -29.0776 -13.1411 32.7851
rtibia 54.1007
rfoot 34.6951 -33.0646
rtoes 45.2863
lfemur -48.1621 -1.30285 -25.7482
ltibia 47.3533
lfoot -36.3748 18.7035
ltoes 7.74492
89
root 4.7017 16.5359 27.8377 30.2309 -52.3261 -7.76018
lowerback -14.3418 2.74384 -2.74495
upperback -9.2483 3.66927 -0.146815
thorax -1.91386 1.8519 1.83509
lowerneck -10.7478 -0.355606 -1.18266
upperneck 39.8564 -2.53813 3.37718
head 16.0499 -1.11828 1.17955
rclavicle 4.19933e-014 4.6118e-014
rhumerus -144.804 -38.2852 106.252
rradius 14.841
rwrist 153.933
rhand 12.0223 10.9803
rfingers 7.12502
rthumb 37.0418 -15.0733
lclavicle 4.19933e-014 4.6118e-014
lhumerus -37.7394 21.8952 34.015
lradius 17.9567
lwrist -29.0683
lhand 23.4507 22.5239
lfingers 7.12502
lthumb 47.735 44.8594
rfemur -29.057 -13.2381 33.3385
rtibia 54.0169
rfoot 37.2194 -31.1459
rtoes 42.5352
lfemur -48.1727 -1.58231 -25.0353
ltibia 47.3467
lfoot -36.7423 18.4316
ltoes 7.71886
90
root 4.68802 16.53 27.8627 30.6496 -52.5462 -8.14171
lowerback -14.7275 2.75873 -2.43892
upperback -9.22341 3.65803 -0.117152
thorax -1.66326 1.82787 1.71541
lowerneck -10.6702 -0.228953 -1.07425
upperneck 39.7757 -2.30757 3.21729
head 15.9747 -1.02896 1.12601
rclavicle -3.43338e-014 -2.38542e-015
rhumerus -146.57 -37.0425 108.57
rradius 15.2596
rwrist 154.316
rhand 11.1973 11.0633
rfingers 7.12502
rthumb 36.261 -15.1886
lclavicle -3.43338e-014 -2.38542e-015
lhumerus -38.5683 24.3571 31.5788
lradius 18.1553
lwrist -28.1069
lhand 22.5972 22.5403
lfingers 7.12502
lthumb 46.9464 45.23
rfemur -28.9144 -13.3075 33.3847
rtibia 53.9082
rfoot 37.5308 -30.179
rtoes 41.7901
lfemur -48.0774 -1.9278 -24.692
ltibia 47.3542
lfoot -37.3418 18.3541
ltoes 8.25124
91
root 4.66155 16.5268 27.9039 30.0807 -52.8712 -7.38605
lowerback -15.3335 2.76066 -2.69005
upperback -9.05569 3.70906 -0.351071
thorax -1.1697 1.84835 1.65566
lowerneck -10.6378 -0.218761 -1.05024
upperneck 39.6252 -2.26413 3.16736
head 15.885 -1.01247 1.10524
rclavicle -7.36435e-014 -1.11319e-014
rhumerus -147.204 -36.8603 109.377
rradius 15.3819
rwrist 152.32
rhand 10.4797 11.0951
rfingers 7.12502
rthumb 35.5812 -15.3232
lclavicle -7.36435e-014 -1.11319e-014
lhumerus -39.3582 27.0723 29.13
lradius 18.6724
lwrist -27.19
lhand 21.9178 22.3866
lfingers 7.12502
lthumb 46.3173 45.3478
rfemur -28.6398 -14.1159 32.4826
rtibia 53.9471
rfoot 36.8369 -29.724
rtoes 42.4172
lfemur -47.6208 -2.03244 -25.4059
ltibia 47.2233
lfoot -37.579 18.2347
ltoes 8.14645
92
root 4.65077 16.5206 27.9156 30.3868 -52.9535 -7.53633
lowerback -15.6461 2.91183 -2.55235
upperback -9.05394 3.89691 -0.401295
thorax -0.999409 1.93262 1.5688
lowerneck -10.4932 -0.279581 -1.30644
upperneck 39.3885 -2.31418 3.3034
head 15.7336 -1.05111 1.20038
rclavicle 5.83309e-015 -3.18055e-015
rhumerus -146.996 -37.3124 109.373
rradius 15.1706
rwrist 148.76
rhand 9.85737 11.1006
rfingers 7.12502
rthumb 34.9911 -15.4576
lclavicle 5.83309e-015 -3.18055e-015
lhumerus -39.6681 28.6727 27.7234
lradius 19.2621
lwrist -24.5675
lhand 21.4194 22.7777
lfingers 7.12502
lthumb 45.855 45.9323
rfemur -28.7087 -14.2616 32.4603
rtibia 54.0429
rfoot 35.3466 -31.0913
rtoes 43.9675
lfemur -47.6302 -2.15802 -25.2968
ltibia 47.0958
lfoot -37.5941 18.5059
ltoes 7.64976
93
root 4.64142 16.5098 27.9174 30.5415 -53.2045 -7.59386
lowerback -15.7724 3.04119 -2.58514
upperback -9.06877 4.07352 -0.498778
thorax -0.952521 2.0188 1.51628
lowerneck -10.3973 -0.308664 -1.47859
upperneck 39.1186 -2.39367 3.57972
head 15.5817 -1.07071 1.33487
rclavicle -5.52404e-014 -2.06736e-014
rhumerus -145.937 -38.9476 107.997
rradius 14.5788
rwrist 143.32
rhand 9.29974 10.7259
rfingers 7.12502
rthumb 34.4619 -15.9542
lclavicle -5.52404e-014 -2.06736e-014
lhumerus -39.7968 29.8487 26.4481
lradius 19.5175
lwrist -21.1169
lhand 21.311 23.5571
lfingers 7.12502
lthumb 45.7544 46.7532
rfemur -28.7035 -13.9514 32.2544
rtibia 54.1833
rfoot 32.5722 -33.7837
rtoes 46.3264
lfemur -47.5558 -2.5793 -25.1246
ltibia 46.9522
lfoot -38.1397 18.5106
ltoes 8.538
94
root 4.6329 16.4894 27.928 30.5919 -53.4945 -7.64891
lowerback -15.8098 3.13467 -2.54065
upperback -9.07171 4.19153 -0.615875
thorax -0.928605 2.0724 1.38795
lowerneck -10.4683 -0.262595 -1.38144
upperneck 38.9982 -2.37799 3.68624
head 15.5377 -1.03296 1.36389
rclavicle -2.93363e-014 1.27222e-014
rhumerus -144.913 -40.5512 106.579
rradius 14.1384
rwrist 138.044
rhand 8.71139 10.9307
rfingers 7.12502
rthumb 33.9031 -15.8745
lclavicle -2.93363e-014 1.27222e-014
lhumerus -40.1163 31.0781 24.9564
lradius 19.6622
lwrist -17.3894
lhand 21.2416 24.5066
lfingers 7.12502
lthumb 45.6899 47.7292
rfemur -28.797 -14.5818 32.38
rtibia 54.2373
rfoot 36.6112 -28.85
rtoes 42.2367
lfemur -47.4537 -2.79364 -25.0987
ltibia 46.9449
lfoot -38.8613 18.2339
ltoes 10.3889
95
root 4.61994 16.4802 27.9451 30.8816 -53.6141 -8.02549
lowerback -15.8714 3.32365 -2.21094
upperback -9.08833 4.39817 -0.678417
thorax -0.890487 2.1613 1.17165
lowerneck -10.4296 -0.297364 -1.47522
upperneck 38.9247 -2.459 3.8471
head 15.4986 -1.05872 1.43624
rclavicle 6.31825e-014 2.38542e-014
rhumerus -143.812 -41.7707 105.352
rradius 13.6825
rwrist 132.61
rhand 7.836 11.2704
rfingers 7.12502
rthumb 33.0711 -15.7148
lclavicle 6.31825e-014 2.38542e-014
lhumerus -40.4556 32.1451 23.8347
lradius 19.9685
lwrist -13.5954
lhand 20.5665 25.101
lfingers 7.12502
lthumb 45.0625 48.576
rfemur -28.5258 -14.649 32.3456
rtibia 54.2209
rfoot 35.4643 -29.934
rtoes 43.6163
lfemur -47.3634 -2.67874 -24.9753
ltibia 47.0102
lfoot -39.2374 18.047
ltoes 11.1223
96
root 4.60966 16.4758 27.9469 31.4985 -53.5102 -8.8066
lowerback -15.8536 3.41048 -1.75187
upperback -9.04298 4.45428 -0.584612
thorax -0.823051 2.17454 1.0232
lowerneck -10.509 -0.288395 -1.37209
upperneck 38.8344 -2.42603 3.75629
head 15.4676 -1.03867 1.38261
rclavicle -2.86343e-014 -3.65764e-014
rhumerus -142.79 -43.2951 103.811
rradius 12.954
rwrist 126.031
rhand 6.22916 10.8289
rfingers 7.12502
rthumb 31.5417 -16.4679
lclavicle -2.86343e-014 -3.65764e-014
lhumerus -41.3312 34.1032 22.1441
lradius 20.3948
lwrist -10.3293
lhand 19.4135 24.835
lfingers 7.12502
lthumb 43.9884 48.7222
rfemur -28.2066 -14.3004 32.6181
rtibia 54.1114
rfoot 32.417 -33.0878
rtoes 46.2778
lfemur -47.451 -2.66343 -24.4021
ltibia 47.1969
lfoot -39.6817 17.8714
ltoes 12.2124
97
root 4.60368 16.4658 27.9425 31.8043 -53.6164 -9.18966
lowerback -15.6812 3.36294 -1.73599
upperback -9.09481 4.38329 -0.458374
thorax -0.975391 2.14287 1.12303
lowerneck -10.5209 -0.204461 -1.27372
upperneck 38.7736 -2.26179 3.60288
head 15.4288 -0.975331 1.32378
rclavicle -1.53903e-014 -1.66979e-014
rhumerus -141.745 -44.9509 102.239
rradius 12.324
rwrist 119.613
rhand 4.34763 10.5355
rfingers 7.12502
rthumb 29.7475 -17.0972
lclavicle -1.53903e-014 -1.66979e-014
lhumerus -42.8816 36.751 19.5358
lradius 20.7255
lwrist -7.41535
lhand 18.3898 24.8083
lfingers 7.12502
lthumb 43.0322 49.0429
rfemur -28.2207 -14.463 32.9236
rtibia 53.9832
rfoot 34.988 -30.5631
rtoes 43.9343
lfemur -47.5815 -2.73123 -24.1207
ltibia 47.4292
lfoot -40.0646 18.1209
ltoes 12.6119
98
root 4.59361 16.4598 27.9462 32.3451 -53.6263 -9.89854
lowerback -15.6247 3.48418 -1.37167
upperback -9.13139 4.49304 -0.352866
thorax -1.02647 2.18705 1.04083
lowerneck -10.4693 -0.224887 -1.27577
upperneck 38.7143 -2.26884 3.55549
head 15.3859 -0.984963 1.30193
rclavicle 3.92662e-014 2.22639e-014
rhumerus -141.33 -45.6049 101.599
rradius 12.1656
rwrist 114.279
rhand 2.53398 10.9668
rfingers 7.12502
rthumb 28.0152 -16.962
lclavicle 3.92662e-014 2.22639e-014
lhumerus -44.181 39.173 17.2999
lradius 21.0847
lwrist -4.54511
lhand 17.444 24.6102
lfingers 7.12502
lthumb 42.147 49.1508
rfemur -28.022 -14.4682 33.2864
rtibia 53.8329
rfoot 35.2902 -30.247
rtoes 43.6694
lfemur -47.6416 -2.91576 -23.5946
ltibia 47.6829
lfoot -40.4106 18.3228
ltoes 13.8879
